<?xml version="1.0" encoding="UTF-8" standalone="no"?><svg xmlns="http://www.w3.org/2000/svg" xmlns:xlink="http://www.w3.org/1999/xlink" contentScriptType="application/ecmascript" contentStyleType="text/css" height="353px" preserveAspectRatio="none" style="width:530px;height:353px;" version="1.1" viewBox="0 0 530 353" width="530px" zoomAndPan="magnify"><defs><filter height="300%" id="fde8vfo71nc9j" width="300%" x="-1" y="-1"><feGaussianBlur result="blurOut" stdDeviation="2.0"/><feColorMatrix in="blurOut" result="blurOut2" type="matrix" values="0 0 0 0 0 0 0 0 0 0 0 0 0 0 0 0 0 0 .4 0"/><feOffset dx="4.0" dy="4.0" in="blurOut2" result="blurOut3"/><feBlend in="SourceGraphic" in2="blurOut3" mode="normal"/></filter></defs><g><!--cluster de.fhro.inf.prg3.a08.filtering--><polygon fill="#FFFFFF" filter="url(#fde8vfo71nc9j)" points="14,16,245,16,252,38.2969,508,38.2969,508,341,14,341,14,16" style="stroke: #000000; stroke-width: 2.0;"/><line style="stroke: #000000; stroke-width: 2.0;" x1="14" x2="252" y1="38.2969" y2="38.2969"/><text fill="#000000" font-family="sans-serif" font-size="14" font-weight="bold" lengthAdjust="spacingAndGlyphs" textLength="225" x="18" y="30.9951">de.fhro.inf.prg3.a08.filtering</text><!--class MealsFilter--><rect fill="#FEFECE" filter="url(#fde8vfo71nc9j)" height="60.8047" id="MealsFilter" style="stroke: #A80036; stroke-width: 1.5;" width="232" x="92" y="43"/><ellipse cx="170.75" cy="59" fill="#B4A7E5" rx="11" ry="11" style="stroke: #A80036; stroke-width: 1.0;"/><path d="M166.6719,54.7656 L166.6719,52.6094 L174.0625,52.6094 L174.0625,54.7656 L171.5938,54.7656 L171.5938,62.8438 L174.0625,62.8438 L174.0625,65 L166.6719,65 L166.6719,62.8438 L169.1406,62.8438 L169.1406,54.7656 L166.6719,54.7656 Z "/><text fill="#000000" font-family="sans-serif" font-size="12" font-style="italic" lengthAdjust="spacingAndGlyphs" textLength="66" x="191.25" y="63.1543">MealsFilter</text><line style="stroke: #A80036; stroke-width: 1.5;" x1="93" x2="323" y1="75" y2="75"/><line style="stroke: #A80036; stroke-width: 1.5;" x1="93" x2="323" y1="83" y2="83"/><text fill="#000000" font-family="sans-serif" font-size="11" lengthAdjust="spacingAndGlyphs" textLength="220" x="98" y="97.2104">filter(meals: List&lt;Meal&gt;): List&lt;Meals&gt;</text><!--class AllMealsStrategy--><rect fill="#FEFECE" filter="url(#fde8vfo71nc9j)" height="48" id="AllMealsStrategy" style="stroke: #A80036; stroke-width: 1.5;" width="135" x="22.5" y="170.5"/><ellipse cx="37.5" cy="186.5" fill="#ADD1B2" rx="11" ry="11" style="stroke: #A80036; stroke-width: 1.0;"/><path d="M40.4688,192.1406 Q39.8906,192.4375 39.25,192.5859 Q38.6094,192.7344 37.9063,192.7344 Q35.4063,192.7344 34.0859,191.0859 Q32.7656,189.4375 32.7656,186.3125 Q32.7656,183.1875 34.0859,181.5313 Q35.4063,179.875 37.9063,179.875 Q38.6094,179.875 39.2578,180.0313 Q39.9063,180.1875 40.4688,180.4844 L40.4688,183.2031 Q39.8438,182.625 39.25,182.3516 Q38.6563,182.0781 38.0313,182.0781 Q36.6875,182.0781 36,183.1484 Q35.3125,184.2188 35.3125,186.3125 Q35.3125,188.4063 36,189.4766 Q36.6875,190.5469 38.0313,190.5469 Q38.6563,190.5469 39.25,190.2734 Q39.8438,190 40.4688,189.4219 L40.4688,192.1406 Z "/><text fill="#000000" font-family="sans-serif" font-size="12" lengthAdjust="spacingAndGlyphs" textLength="103" x="51.5" y="190.6543">AllMealsStrategy</text><line style="stroke: #A80036; stroke-width: 1.5;" x1="23.5" x2="156.5" y1="202.5" y2="202.5"/><line style="stroke: #A80036; stroke-width: 1.5;" x1="23.5" x2="156.5" y1="210.5" y2="210.5"/><!--class FilterBase--><rect fill="#FEFECE" filter="url(#fde8vfo71nc9j)" height="60.8047" id="FilterBase" style="stroke: #A80036; stroke-width: 1.5;" width="172" x="193" y="164"/><ellipse cx="244.25" cy="180" fill="#A9DCDF" rx="11" ry="11" style="stroke: #A80036; stroke-width: 1.0;"/><path d="M244.3594,175.3438 L243.2031,180.4219 L245.5313,180.4219 L244.3594,175.3438 Z M242.875,173.1094 L245.8594,173.1094 L249.2188,185.5 L246.7656,185.5 L246,182.4375 L242.7188,182.4375 L241.9688,185.5 L239.5313,185.5 L242.875,173.1094 Z "/><text fill="#000000" font-family="sans-serif" font-size="12" font-style="italic" lengthAdjust="spacingAndGlyphs" textLength="61" x="264.75" y="184.1543">FilterBase</text><line style="stroke: #A80036; stroke-width: 1.5;" x1="194" x2="364" y1="196" y2="196"/><line style="stroke: #A80036; stroke-width: 1.5;" x1="194" x2="364" y1="204" y2="204"/><polygon fill="#FFFF44" points="204,210.9023,208,214.9023,204,218.9023,200,214.9023" style="stroke: #B38D22; stroke-width: 1.0;"/><text fill="#000000" font-family="sans-serif" font-size="11" lengthAdjust="spacingAndGlyphs" textLength="146" x="213" y="218.2104">include(m: Meal): boolean</text><!--class VegetarianStrategy--><rect fill="#FEFECE" filter="url(#fde8vfo71nc9j)" height="48" id="VegetarianStrategy" style="stroke: #A80036; stroke-width: 1.5;" width="154" x="22" y="285"/><ellipse cx="37" cy="301" fill="#ADD1B2" rx="11" ry="11" style="stroke: #A80036; stroke-width: 1.0;"/><path d="M39.9688,306.6406 Q39.3906,306.9375 38.75,307.0859 Q38.1094,307.2344 37.4063,307.2344 Q34.9063,307.2344 33.5859,305.5859 Q32.2656,303.9375 32.2656,300.8125 Q32.2656,297.6875 33.5859,296.0313 Q34.9063,294.375 37.4063,294.375 Q38.1094,294.375 38.7578,294.5313 Q39.4063,294.6875 39.9688,294.9844 L39.9688,297.7031 Q39.3438,297.125 38.75,296.8516 Q38.1563,296.5781 37.5313,296.5781 Q36.1875,296.5781 35.5,297.6484 Q34.8125,298.7188 34.8125,300.8125 Q34.8125,302.9063 35.5,303.9766 Q36.1875,305.0469 37.5313,305.0469 Q38.1563,305.0469 38.75,304.7734 Q39.3438,304.5 39.9688,303.9219 L39.9688,306.6406 Z "/><text fill="#000000" font-family="sans-serif" font-size="12" lengthAdjust="spacingAndGlyphs" textLength="122" x="51" y="305.1543">VegetarianStrategy</text><line style="stroke: #A80036; stroke-width: 1.5;" x1="23" x2="175" y1="317" y2="317"/><line style="stroke: #A80036; stroke-width: 1.5;" x1="23" x2="175" y1="325" y2="325"/><!--class NoPorkStrategy--><rect fill="#FEFECE" filter="url(#fde8vfo71nc9j)" height="48" id="NoPorkStrategy" style="stroke: #A80036; stroke-width: 1.5;" width="130" x="211" y="285"/><ellipse cx="226" cy="301" fill="#ADD1B2" rx="11" ry="11" style="stroke: #A80036; stroke-width: 1.0;"/><path d="M228.9688,306.6406 Q228.3906,306.9375 227.75,307.0859 Q227.1094,307.2344 226.4063,307.2344 Q223.9063,307.2344 222.5859,305.5859 Q221.2656,303.9375 221.2656,300.8125 Q221.2656,297.6875 222.5859,296.0313 Q223.9063,294.375 226.4063,294.375 Q227.1094,294.375 227.7578,294.5313 Q228.4063,294.6875 228.9688,294.9844 L228.9688,297.7031 Q228.3438,297.125 227.75,296.8516 Q227.1563,296.5781 226.5313,296.5781 Q225.1875,296.5781 224.5,297.6484 Q223.8125,298.7188 223.8125,300.8125 Q223.8125,302.9063 224.5,303.9766 Q225.1875,305.0469 226.5313,305.0469 Q227.1563,305.0469 227.75,304.7734 Q228.3438,304.5 228.9688,303.9219 L228.9688,306.6406 Z "/><text fill="#000000" font-family="sans-serif" font-size="12" lengthAdjust="spacingAndGlyphs" textLength="98" x="240" y="305.1543">NoPorkStrategy</text><line style="stroke: #A80036; stroke-width: 1.5;" x1="212" x2="340" y1="317" y2="317"/><line style="stroke: #A80036; stroke-width: 1.5;" x1="212" x2="340" y1="325" y2="325"/><!--class NoSoyStrategy--><rect fill="#FEFECE" filter="url(#fde8vfo71nc9j)" height="48" id="NoSoyStrategy" style="stroke: #A80036; stroke-width: 1.5;" width="124" x="376" y="285"/><ellipse cx="391" cy="301" fill="#ADD1B2" rx="11" ry="11" style="stroke: #A80036; stroke-width: 1.0;"/><path d="M393.9688,306.6406 Q393.3906,306.9375 392.75,307.0859 Q392.1094,307.2344 391.4063,307.2344 Q388.9063,307.2344 387.5859,305.5859 Q386.2656,303.9375 386.2656,300.8125 Q386.2656,297.6875 387.5859,296.0313 Q388.9063,294.375 391.4063,294.375 Q392.1094,294.375 392.7578,294.5313 Q393.4063,294.6875 393.9688,294.9844 L393.9688,297.7031 Q393.3438,297.125 392.75,296.8516 Q392.1563,296.5781 391.5313,296.5781 Q390.1875,296.5781 389.5,297.6484 Q388.8125,298.7188 388.8125,300.8125 Q388.8125,302.9063 389.5,303.9766 Q390.1875,305.0469 391.5313,305.0469 Q392.1563,305.0469 392.75,304.7734 Q393.3438,304.5 393.9688,303.9219 L393.9688,306.6406 Z "/><text fill="#000000" font-family="sans-serif" font-size="12" lengthAdjust="spacingAndGlyphs" textLength="92" x="405" y="305.1543">NoSoyStrategy</text><line style="stroke: #A80036; stroke-width: 1.5;" x1="377" x2="499" y1="317" y2="317"/><line style="stroke: #A80036; stroke-width: 1.5;" x1="377" x2="499" y1="325" y2="325"/><!--link MealsFilter to AllMealsStrategy--><path d="M164.0673,118.5496 C146.8963,136.1572 127.9003,155.6361 113.4453,170.4587 " fill="none" id="MealsFilter-AllMealsStrategy" style="stroke: #A80036; stroke-width: 1.0; stroke-dasharray: 7.0,7.0;"/><polygon fill="none" points="159.2486,113.4647,178.2236,104.0334,169.2716,123.2392,159.2486,113.4647" style="stroke: #A80036; stroke-width: 1.0;"/><!--link MealsFilter to FilterBase--><path d="M236.114,121.4125 C244.5285,135.7528 253.5224,151.0804 261.0894,163.9764 " fill="none" id="MealsFilter-FilterBase" style="stroke: #A80036; stroke-width: 1.0; stroke-dasharray: 7.0,7.0;"/><polygon fill="none" points="230.0007,124.8257,225.9163,104.0334,242.0754,117.7405,230.0007,124.8257" style="stroke: #A80036; stroke-width: 1.0;"/><!--link FilterBase to VegetarianStrategy--><path d="M213.8633,235.9342 C187.9832,252.3968 159.1267,270.7527 136.811,284.948 " fill="none" id="FilterBase-VegetarianStrategy" style="stroke: #A80036; stroke-width: 1.0;"/><polygon fill="none" points="210.131,230.0121,230.7633,225.1839,217.6452,241.8247,210.131,230.0121" style="stroke: #A80036; stroke-width: 1.0;"/><!--link FilterBase to NoPorkStrategy--><path d="M277.6707,245.2346 C277.3106,258.9779 276.9372,273.2288 276.635,284.7634 " fill="none" id="FilterBase-NoPorkStrategy" style="stroke: #A80036; stroke-width: 1.0;"/><polygon fill="none" points="270.6745,244.9937,278.1961,225.1839,284.6697,245.3604,270.6745,244.9937" style="stroke: #A80036; stroke-width: 1.0;"/><!--link FilterBase to NoSoyStrategy--><path d="M337.8528,236.8814 C360.3717,253.0979 385.2653,271.0244 404.6003,284.948 " fill="none" id="FilterBase-NoSoyStrategy" style="stroke: #A80036; stroke-width: 1.0;"/><polygon fill="none" points="333.7482,242.5518,321.6091,225.1839,341.9294,231.191,333.7482,242.5518" style="stroke: #A80036; stroke-width: 1.0;"/><!--
@startuml FilteringStrategies

package de.fhro.inf.prg3.a08.filtering {

    interface MealsFilter {
        filter(meals: List<Meal>): List<Meals>
    }

    class AllMealsStrategy implements MealsFilter {

    }

    abstract class FilterBase implements MealsFilter {
        #include(m: Meal): boolean
    }

    class VegetarianStrategy extends FilterBase {

    }

    class NoPorkStrategy extends FilterBase {

    }

    class NoSoyStrategy extends FilterBase {
        
    }
}

@enduml

PlantUML version 1.2017.19(Sun Nov 12 12:46:22 CET 2017)
(GPL source distribution)
Java Runtime: OpenJDK Runtime Environment
JVM: OpenJDK 64-Bit Server VM
Java Version: 1.8.0_144-b01
Operating System: Linux
OS Version: 4.13.12-1-ARCH
Default Encoding: UTF-8
Language: en
Country: US
--></g></svg>