<?xml version="1.0" encoding="UTF-8" standalone="no"?><svg xmlns="http://www.w3.org/2000/svg" xmlns:xlink="http://www.w3.org/1999/xlink" contentScriptType="application/ecmascript" contentStyleType="text/css" height="124px" preserveAspectRatio="none" style="width:282px;height:124px;" version="1.1" viewBox="0 0 282 124" width="282px" zoomAndPan="magnify"><defs><filter height="300%" id="f6wbuswzaw99z" width="300%" x="-1" y="-1"><feGaussianBlur result="blurOut" stdDeviation="2.0"/><feColorMatrix in="blurOut" result="blurOut2" type="matrix" values="0 0 0 0 0 0 0 0 0 0 0 0 0 0 0 0 0 0 .4 0"/><feOffset dx="4.0" dy="4.0" in="blurOut2" result="blurOut3"/><feBlend in="SourceGraphic" in2="blurOut3" mode="normal"/></filter></defs><g><!--cluster de.fhro.inf.prg3.a08.filtering--><polygon fill="#FFFFFF" filter="url(#f6wbuswzaw99z)" points="14,16,245,16,252,38.2969,260,38.2969,260,112,14,112,14,16" style="stroke: #000000; stroke-width: 2.0;"/><line style="stroke: #000000; stroke-width: 2.0;" x1="14" x2="252" y1="38.2969" y2="38.2969"/><text fill="#000000" font-family="sans-serif" font-size="14" font-weight="bold" lengthAdjust="spacingAndGlyphs" textLength="225" x="18" y="30.9951">de.fhro.inf.prg3.a08.filtering</text><!--class StrategyFactory--><rect fill="#FEFECE" filter="url(#f6wbuswzaw99z)" height="60.8047" id="StrategyFactory" style="stroke: #A80036; stroke-width: 1.5;" width="230" x="22" y="43"/><ellipse cx="82.25" cy="59" fill="#A9DCDF" rx="11" ry="11" style="stroke: #A80036; stroke-width: 1.0;"/><path d="M82.3594,54.3438 L81.2031,59.4219 L83.5313,59.4219 L82.3594,54.3438 Z M80.875,52.1094 L83.8594,52.1094 L87.2188,64.5 L84.7656,64.5 L84,61.4375 L80.7188,61.4375 L79.9688,64.5 L77.5313,64.5 L80.875,52.1094 Z "/><text fill="#000000" font-family="sans-serif" font-size="12" font-style="italic" lengthAdjust="spacingAndGlyphs" textLength="101" x="102.75" y="63.1543">StrategyFactory</text><line style="stroke: #A80036; stroke-width: 1.5;" x1="23" x2="251" y1="75" y2="75"/><line style="stroke: #A80036; stroke-width: 1.5;" x1="23" x2="251" y1="83" y2="83"/><ellipse cx="33" cy="94.9023" fill="#84BE84" rx="3" ry="3" style="stroke: #038048; stroke-width: 1.0;"/><text fill="#000000" font-family="sans-serif" font-size="11" lengthAdjust="spacingAndGlyphs" text-decoration="underline" textLength="204" x="42" y="97.2104">getStrategy(key: String): MealsFilter</text><line style="stroke: #000000; stroke-width: 1.0;" x1="42" x2="246" y1="99.2104" y2="99.2104"/><!--
@startuml FilteringFactory

package de.fhro.inf.prg3.a08.filtering {
    abstract class StrategyFactory {
        +{static} getStrategy(key: String): MealsFilter
    }
}

@enduml

PlantUML version 1.2017.19(Sun Nov 12 12:46:22 CET 2017)
(GPL source distribution)
Java Runtime: OpenJDK Runtime Environment
JVM: OpenJDK 64-Bit Server VM
Java Version: 1.8.0_144-b01
Operating System: Linux
OS Version: 4.13.12-1-ARCH
Default Encoding: UTF-8
Language: en
Country: US
--></g></svg>