<?xml version="1.0" encoding="UTF-8" standalone="no"?><svg xmlns="http://www.w3.org/2000/svg" xmlns:xlink="http://www.w3.org/1999/xlink" contentScriptType="application/ecmascript" contentStyleType="text/css" height="197px" preserveAspectRatio="none" style="width:579px;height:197px;" version="1.1" viewBox="0 0 579 197" width="579px" zoomAndPan="magnify"><defs><filter height="300%" id="f1hw6n6r4dhg2" width="300%" x="-1" y="-1"><feGaussianBlur result="blurOut" stdDeviation="2.0"/><feColorMatrix in="blurOut" result="blurOut2" type="matrix" values="0 0 0 0 0 0 0 0 0 0 0 0 0 0 0 0 0 0 .4 0"/><feOffset dx="4.0" dy="4.0" in="blurOut2" result="blurOut3"/><feBlend in="SourceGraphic" in2="blurOut3" mode="normal"/></filter></defs><g><!--cluster de.fhro.inf.prg3.a08--><polygon fill="#FFFFFF" filter="url(#f1hw6n6r4dhg2)" points="14,16,179,16,186,38.2969,557,38.2969,557,185,14,185,14,16" style="stroke: #000000; stroke-width: 2.0;"/><line style="stroke: #000000; stroke-width: 2.0;" x1="14" x2="186" y1="38.2969" y2="38.2969"/><text fill="#000000" font-family="sans-serif" font-size="14" font-weight="bold" lengthAdjust="spacingAndGlyphs" textLength="159" x="18" y="30.9951">de.fhro.inf.prg3.a08</text><!--cluster services--><polygon fill="#FFFFFF" filter="url(#f1hw6n6r4dhg2)" points="299,43,372,43,379,65.2969,549,65.2969,549,177,299,177,299,43" style="stroke: #000000; stroke-width: 2.0;"/><line style="stroke: #000000; stroke-width: 2.0;" x1="299" x2="379" y1="65.2969" y2="65.2969"/><text fill="#000000" font-family="sans-serif" font-size="14" font-weight="bold" lengthAdjust="spacingAndGlyphs" textLength="67" x="303" y="57.9951">services</text><!--class OpenMensaAPI--><rect fill="#FEFECE" filter="url(#f1hw6n6r4dhg2)" height="60.8047" id="OpenMensaAPI" style="stroke: #A80036; stroke-width: 1.5;" width="249" x="22.5" y="89"/><ellipse cx="97.25" cy="105" fill="#B4A7E5" rx="11" ry="11" style="stroke: #A80036; stroke-width: 1.0;"/><path d="M93.1719,100.7656 L93.1719,98.6094 L100.5625,98.6094 L100.5625,100.7656 L98.0938,100.7656 L98.0938,108.8438 L100.5625,108.8438 L100.5625,111 L93.1719,111 L93.1719,108.8438 L95.6406,108.8438 L95.6406,100.7656 L93.1719,100.7656 Z "/><text fill="#000000" font-family="sans-serif" font-size="12" font-style="italic" lengthAdjust="spacingAndGlyphs" textLength="91" x="117.75" y="109.1543">OpenMensaAPI</text><line style="stroke: #A80036; stroke-width: 1.5;" x1="23.5" x2="270.5" y1="121" y2="121"/><line style="stroke: #A80036; stroke-width: 1.5;" x1="23.5" x2="270.5" y1="129" y2="129"/><text fill="#000000" font-family="sans-serif" font-size="11" lengthAdjust="spacingAndGlyphs" textLength="237" x="28.5" y="143.2104">getMeals(date: String): Call&lt;List&lt;Meal&gt;&gt;</text><!--class OpenMensaAPIService--><rect fill="#FEFECE" filter="url(#f1hw6n6r4dhg2)" height="99.2188" id="OpenMensaAPIService" style="stroke: #A80036; stroke-width: 1.5;" width="234" x="307" y="70"/><ellipse cx="350.8" cy="86" fill="#ADD1B2" rx="11" ry="11" style="stroke: #A80036; stroke-width: 1.0;"/><path d="M353.7688,91.6406 Q353.1906,91.9375 352.55,92.0859 Q351.9094,92.2344 351.2063,92.2344 Q348.7063,92.2344 347.3859,90.5859 Q346.0656,88.9375 346.0656,85.8125 Q346.0656,82.6875 347.3859,81.0313 Q348.7063,79.375 351.2063,79.375 Q351.9094,79.375 352.5578,79.5313 Q353.2063,79.6875 353.7688,79.9844 L353.7688,82.7031 Q353.1438,82.125 352.55,81.8516 Q351.9563,81.5781 351.3313,81.5781 Q349.9875,81.5781 349.3,82.6484 Q348.6125,83.7188 348.6125,85.8125 Q348.6125,87.9063 349.3,88.9766 Q349.9875,90.0469 351.3313,90.0469 Q351.9563,90.0469 352.55,89.7734 Q353.1438,89.5 353.7688,88.9219 L353.7688,91.6406 Z "/><text fill="#000000" font-family="sans-serif" font-size="12" lengthAdjust="spacingAndGlyphs" textLength="138" x="371.2" y="90.1543">OpenMensaAPIService</text><line style="stroke: #A80036; stroke-width: 1.5;" x1="308" x2="540" y1="102" y2="102"/><rect fill="none" height="6" style="stroke: #C82930; stroke-width: 1.0;" width="6" x="315" y="110.9023"/><text fill="#000000" font-family="sans-serif" font-size="11" lengthAdjust="spacingAndGlyphs" text-decoration="underline" textLength="182" x="327" y="116.2104">instance: OpenMensaAPIService</text><line style="stroke: #000000; stroke-width: 1.0;" x1="327" x2="509" y1="118.2104" y2="118.2104"/><rect fill="none" height="6" style="stroke: #C82930; stroke-width: 1.0;" width="6" x="315" y="123.707"/><text fill="#000000" font-family="sans-serif" font-size="11" lengthAdjust="spacingAndGlyphs" textLength="196" x="327" y="129.0151">mensaApiInstance: OpenMensaAPI</text><line style="stroke: #A80036; stroke-width: 1.5;" x1="308" x2="540" y1="135.6094" y2="135.6094"/><ellipse cx="318" cy="147.5117" fill="#84BE84" rx="3" ry="3" style="stroke: #038048; stroke-width: 1.0;"/><text fill="#000000" font-family="sans-serif" font-size="11" lengthAdjust="spacingAndGlyphs" text-decoration="underline" textLength="208" x="327" y="149.8198">getInstance(): OpenMensaAPIService</text><line style="stroke: #000000; stroke-width: 1.0;" x1="327" x2="535" y1="151.8198" y2="151.8198"/><ellipse cx="318" cy="160.3164" fill="#84BE84" rx="3" ry="3" style="stroke: #038048; stroke-width: 1.0;"/><text fill="#000000" font-family="sans-serif" font-size="11" lengthAdjust="spacingAndGlyphs" textLength="135" x="327" y="162.6245">getApi(): OpenMensaAPI</text><!--
@startuml OpenMensaAPIService

package de.fhro.inf.prg3.a08 {

    interface OpenMensaAPI {
        getMeals(date: String): Call<List<Meal>>
    }

    package services {
        class OpenMensaAPIService {
            -{static} instance: OpenMensaAPIService
            -mensaApiInstance: OpenMensaAPI
            +{static} getInstance(): OpenMensaAPIService
            +getApi(): OpenMensaAPI
        }
    }
}

@enduml

PlantUML version 1.2017.19(Sun Nov 12 12:46:22 CET 2017)
(GPL source distribution)
Java Runtime: OpenJDK Runtime Environment
JVM: OpenJDK 64-Bit Server VM
Java Version: 1.8.0_144-b01
Operating System: Linux
OS Version: 4.13.12-1-ARCH
Default Encoding: UTF-8
Language: en
Country: US
--></g></svg>